<?xml version="1.0" encoding="utf-8" ?><svg xmlns="http://www.w3.org/2000/svg" xmlns:xlink="http://www.w3.org/1999/xlink" width="1024" height="565" viewBox="0 0 1024 565"><path fill="#313031" transform="scale(0.928377 0.928377)" d="M486.333 234.497C524.335 231.582 557.535 259.952 560.573 297.937C563.611 335.922 535.343 369.206 497.36 372.366C459.203 375.542 425.726 347.121 422.674 308.962C419.621 270.803 448.156 237.425 486.333 234.497ZM497.373 344.044C519.755 340.856 535.327 320.149 532.175 297.767C529.023 275.385 508.338 259.782 485.945 262.896C463.501 266.018 447.851 286.758 451.01 309.192C454.169 331.627 474.939 347.24 497.373 344.044Z"/><path fill="#313031" transform="scale(0.928377 0.928377)" d="M216.367 238.739L247.684 238.771C250.197 244.014 252.7 249.536 255.016 254.879C271.455 292.816 290.186 330.303 306.021 368.46L274.719 368.465C270.562 359.216 266.53 349.911 262.623 340.554C257.721 340.485 252.698 340.539 247.786 340.534C232.287 340.613 216.788 340.59 201.29 340.466C196.941 349.326 193.439 359.209 190.23 368.533L158.48 368.634C169.532 342.263 182.518 314.529 194.207 288.271L208.363 256.384C210.713 251.084 213.711 243.73 216.367 238.739ZM211.209 317.233L234.414 317.215L253.192 317.239C250.221 310.697 233.922 271.136 231.259 268.533C224.723 284.826 218.039 301.061 211.209 317.233Z"/><path fill="#313031" transform="scale(0.928377 0.928377)" d="M907.138 239.101C918.908 238.913 930.681 238.85 942.452 238.913C935.74 245.509 927.985 254.217 921.398 261.206C910.444 272.873 899.336 284.393 888.076 295.764C898.443 307.273 908.856 320.843 918.173 333.201C926.811 343.711 937.239 357.52 945.358 368.528L910.499 368.468C905.189 363.123 898.098 353.678 893.353 347.643C885.216 337.208 876.961 326.865 868.591 316.616C863.302 321.692 856.446 329.697 851.372 335.302C850.502 344.075 851.156 359.352 851.334 368.626C841.596 368.303 831.065 368.498 821.268 368.507L821.338 239.085C831.107 239.238 841.189 239.125 850.985 239.141C850.649 252.206 851.108 265.751 851.026 278.847C850.986 285.357 851.511 292.63 851.081 299.018C856.575 292.79 863.604 285.83 869.386 279.641L907.138 239.101Z"/><path fill="#313031" transform="scale(0.928377 0.928377)" d="M299.746 238.939C311.599 238.643 325.149 239.15 337.24 239.187L413.136 239.037L413.11 264.032C400.631 263.211 384.057 263.309 371.562 263.776L371.566 327.654L371.68 368.672C361.579 368.576 351.477 368.576 341.376 368.671L341.565 263.84C327.606 263.681 313.645 263.644 299.685 263.729L299.746 238.939Z"/><path fill="#477A58" transform="scale(0.928377 0.928377)" d="M696.868 238.826C703.98 238.592 724.672 237.742 731.887 239.656C732.505 239.819 732.472 240.863 732.62 241.725C732.176 256.554 732.433 272.42 732.423 287.308L732.502 368.751C720.769 368.635 709.036 368.628 697.304 368.73C696.876 353.972 695.975 326.488 696.889 311.896C696.523 304.358 696.875 293.942 696.888 286.233L696.868 238.826Z"/><path fill="#58956A" transform="scale(0.928377 0.928377)" d="M696.868 238.826C703.98 238.592 724.672 237.742 731.887 239.656C732.505 239.819 732.472 240.863 732.62 241.725C731.317 242.559 730.267 243.405 729.66 244.865C721.586 264.258 713.381 283.485 702.809 301.695C701.393 304.133 698.585 310.263 696.889 311.896C696.523 304.358 696.875 293.942 696.888 286.233L696.868 238.826Z"/><path fill="#313031" transform="scale(0.928377 0.928377)" d="M760.482 239.091C770.513 238.879 781.114 239.058 791.188 239.065L791.239 368.494C781.65 368.364 769.974 368.25 760.483 368.683L760.482 239.091Z"/><path fill="#477A58" transform="scale(0.928377 0.928377)" d="M640.799 281.186C649.92 280.997 664.764 281.933 673.512 280.999C674.39 281.272 676.335 281.678 676.351 282.348C676.901 305.562 676.471 346.731 676.478 368.823L640.966 368.712L640.89 334.015C640.899 330.377 640.682 321.669 641.005 318.341C640.544 306.96 640.84 292.774 640.799 281.186Z"/><path fill="#58956A" transform="scale(0.928377 0.928377)" d="M640.799 281.186C649.92 280.997 664.764 281.933 673.512 280.999C671.794 296.331 650.791 334.02 641.434 346.841C641.265 343.061 641.631 319.487 641.005 318.341C640.544 306.96 640.84 292.774 640.799 281.186Z"/><path fill="#58956A" transform="scale(0.928377 0.928377)" d="M584.922 317.29L620.307 317.349C620.581 334.255 620.349 351.818 620.363 368.778L584.867 368.726L584.922 317.29Z"/></svg>